# MagicaVoxel @ Ephtracy

# group
o 

# material
mtllib player.mtl
usemtl palette

# normals
vn -1 0 0
vn 1 0 0
vn 0 0 1
vn 0 0 -1
vn 0 -1 0
vn 0 1 0

# texcoords
vt 0.00585938 0.5
vt 0.00976563 0.5
vt 0.0136719 0.5
vt 0.0175781 0.5
vt 0.0214844 0.5
vt 0.0410156 0.5
vt 0.0449219 0.5

# verts
v -1 0 0.4
v -1 0 0
v -1 0.1 0.4
v -1 0.1 0
v -0.9 0 0.6
v -0.9 0 0.4
v -0.9 0 0
v -0.9 0 -0.2
v -0.9 0.1 0.6
v -0.9 0.1 0.4
v -0.9 0.1 0
v -0.9 0.1 -0.2
v -0.8 0 1.4
v -0.8 0 1.2
v -0.8 0 -0.2
v -0.8 0 -0.3
v -0.8 0 -0.7
v -0.8 0 -0.8
v -0.8 0 -1.2
v -0.8 0.1 1.4
v -0.8 0.1 1.2
v -0.8 0.1 -0.2
v -0.8 0.1 -0.3
v -0.8 0.1 -0.7
v -0.8 0.1 -0.8
v -0.8 0.1 -1.2
v -0.7 0 1.2
v -0.7 0 0.6
v -0.7 0 -0.3
v -0.7 0 -0.4
v -0.7 0 -0.6
v -0.7 0 -0.7
v -0.7 0 -1.2
v -0.7 0 -1.3
v -0.7 0.1 1.2
v -0.7 0.1 0.6
v -0.7 0.1 -0.3
v -0.7 0.1 -0.4
v -0.7 0.1 -0.6
v -0.7 0.1 -0.7
v -0.7 0.1 -1.2
v -0.7 0.1 -1.3
v -0.6 0 -0.5
v -0.6 0 -0.6
v -0.6 0 -1.3
v -0.6 0 -1.4
v -0.6 0.1 -0.5
v -0.6 0.1 -0.6
v -0.6 0.1 -1.3
v -0.6 0.1 -1.4
v -0.5 0 -0.4
v -0.5 0 -0.5
v -0.5 0.1 -0.4
v -0.5 0.1 -0.5
v -0.2 0 1.4
v -0.2 0 1.3
v -0.2 0 0.8
v -0.2 0.1 1.4
v -0.2 0.1 1.3
v -0.2 0.1 0.8
v -0.4 0 1.4
v -0.4 0 1.3
v -0.4 0 0.8
v -0.4 0.1 1.4
v -0.4 0.1 1.3
v -0.4 0.1 0.8
v -0.0999999 0 -0.4
v -0.0999999 0 -0.5
v -0.0999999 0 -1.3
v -0.0999999 0 -1.4
v -0.0999999 0.1 -0.4
v -0.0999999 0.1 -0.5
v -0.0999999 0.1 -1.3
v -0.0999999 0.1 -1.4
v 1.19209e-07 0 -0.5
v 1.19209e-07 0 -0.6
v 1.19209e-07 0 -1.2
v 1.19209e-07 0 -1.3
v 1.19209e-07 0.1 -0.5
v 1.19209e-07 0.1 -0.6
v 1.19209e-07 0.1 -1.2
v 1.19209e-07 0.1 -1.3
v 0.1 0 1.2
v 0.1 0 0.6
v 0.1 0 -0.3
v 0.1 0 -0.4
v 0.1 0 -0.6
v 0.1 0 -0.8
v 0.1 0 -0.9
v 0.1 0.1 1.2
v 0.1 0.1 0.6
v 0.1 0.1 -0.3
v 0.1 0.1 -0.4
v 0.1 0.1 -0.6
v 0.1 0.1 -0.8
v 0.1 0.1 -0.9
v 0.2 0 1.4
v 0.2 0 1.2
v 0.2 0 -0.1
v 0.2 0 -0.3
v 0.2 0 -1.1
v 0.2 0 -1.2
v 0.2 0.1 1.4
v 0.2 0.1 1.2
v 0.2 0.1 -0.1
v 0.2 0.1 -0.3
v 0.2 0.1 -1.1
v 0.2 0.1 -1.2
v 0.3 0 0.6
v 0.3 0 0.4
v 0.3 0 0.1
v 0.3 0 -0.1
v 0.3 0 -0.9
v 0.3 0 -1.1
v 0.3 0.1 0.6
v 0.3 0.1 0.4
v 0.3 0.1 0.1
v 0.3 0.1 -0.1
v 0.3 0.1 -0.9
v 0.3 0.1 -1.1
v 0.4 0 0.4
v 0.4 0 0.1
v 0.4 0.1 0.4
v 0.4 0.1 0.1
v -0.8 0 1.4
v -0.8 0.1 1.4
v -0.4 0 1.4
v -0.4 0.1 1.4
v -0.2 0 1.4
v -0.2 0.1 1.4
v 0.2 0 1.4
v 0.2 0.1 1.4
v -0.4 0 0.8
v -0.4 0.1 0.8
v -0.2 0 0.8
v -0.2 0.1 0.8
v -0.9 0 0.6
v -0.9 0.1 0.6
v -0.8 0 0.6
v -0.8 0.1 0.6
v -0.7 0 0.6
v -0.7 0.1 0.6
v 0.1 0 0.6
v 0.1 0.1 0.6
v 0.2 0 0.6
v 0.2 0.1 0.6
v 0.3 0 0.6
v 0.3 0.1 0.6
v -1 0 0.4
v -1 0.1 0.4
v -0.9 0 0.4
v -0.9 0.1 0.4
v 0.3 0 0.4
v 0.3 0.1 0.4
v 0.4 0 0.4
v 0.4 0.1 0.4
v -0.6 0 -0.5
v -0.6 0.1 -0.5
v -0.5 0 -0.5
v -0.5 0.1 -0.5
v -0.0999999 0 -0.5
v -0.0999999 0.1 -0.5
v 1.19209e-07 0 -0.5
v 1.19209e-07 0.1 -0.5
v -0.7 0 -0.6
v -0.7 0.1 -0.6
v -0.6 0 -0.6
v -0.6 0.1 -0.6
v 1.19209e-07 0 -0.6
v 1.19209e-07 0.1 -0.6
v 0.1 0 -0.6
v 0.1 0.1 -0.6
v -0.8 0 -0.7
v -0.8 0.1 -0.7
v -0.7 0 -0.7
v -0.7 0.1 -0.7
v 0.1 0 -0.9
v 0.1 0.1 -0.9
v 0.3 0 -0.9
v 0.3 0.1 -0.9
v -0.8 0 1.2
v -0.8 0.1 1.2
v -0.7 0 1.2
v -0.7 0.1 1.2
v 0.1 0 1.2
v 0.1 0.1 1.2
v 0.2 0 1.2
v 0.2 0.1 1.2
v 0.3 0 0.1
v 0.3 0.1 0.1
v 0.4 0 0.1
v 0.4 0.1 0.1
v -1 0 0
v -1 0.1 0
v -0.9 0 0
v -0.9 0.1 0
v 0.2 0 -0.1
v 0.2 0.1 -0.1
v 0.3 0 -0.1
v 0.3 0.1 -0.1
v -0.9 0 -0.2
v -0.9 0.1 -0.2
v -0.8 0 -0.2
v -0.8 0.1 -0.2
v -0.8 0 -0.3
v -0.8 0.1 -0.3
v -0.7 0 -0.3
v -0.7 0.1 -0.3
v 0.1 0 -0.3
v 0.1 0.1 -0.3
v 0.2 0 -0.3
v 0.2 0.1 -0.3
v -0.7 0 -0.4
v -0.7 0.1 -0.4
v -0.6 0 -0.4
v -0.6 0.1 -0.4
v -0.5 0 -0.4
v -0.5 0.1 -0.4
v -0.0999999 0 -0.4
v -0.0999999 0.1 -0.4
v 0.1 0 -0.4
v 0.1 0.1 -0.4
v 0.2 0 -1.1
v 0.2 0.1 -1.1
v 0.3 0 -1.1
v 0.3 0.1 -1.1
v -0.8 0 -1.2
v -0.8 0.1 -1.2
v -0.7 0 -1.2
v -0.7 0.1 -1.2
v 1.19209e-07 0 -1.2
v 1.19209e-07 0.1 -1.2
v 0.2 0 -1.2
v 0.2 0.1 -1.2
v -0.7 0 -1.3
v -0.7 0.1 -1.3
v -0.6 0 -1.3
v -0.6 0.1 -1.3
v -0.0999999 0 -1.3
v -0.0999999 0.1 -1.3
v 1.19209e-07 0 -1.3
v 1.19209e-07 0.1 -1.3
v -0.6 0 -1.4
v -0.6 0.1 -1.4
v -0.0999999 0 -1.4
v -0.0999999 0.1 -1.4
v -0.8 0 1.4
v -0.4 0 1.4
v -0.2 0 1.4
v 0.2 0 1.4
v -0.5 0 1.3
v -0.4 0 1.3
v -0.2 0 1.3
v -0.0999999 0 1.3
v -0.8 0 1.2
v -0.7 0 1.2
v -0.5 0 1.2
v -0.0999999 0 1.2
v 0.1 0 1.2
v 0.2 0 1.2
v -0.4 0 0.8
v -0.2 0 0.8
v -0.9 0 0.6
v -0.8 0 0.6
v -0.7 0 0.6
v -0.5 0 0.6
v -0.2 0 0.6
v 0.1 0 0.6
v 0.2 0 0.6
v 0.3 0 0.6
v -0.8 0 0.5
v -0.7 0 0.5
v 0.1 0 0.5
v 0.2 0 0.5
v -1 0 0.4
v -0.9 0 0.4
v -0.7 0 0.4
v -0.5 0 0.4
v -0.4 0 0.4
v 0.1 0 0.4
v 0.3 0 0.4
v 0.4 0 0.4
v 0.3 0 0.1
v 0.4 0 0.1
v -1 0 0
v -0.9 0 0
v -0.5 0 -0.1
v -0.4 0 -0.1
v 0.2 0 -0.1
v 0.3 0 -0.1
v -0.9 0 -0.2
v -0.8 0 -0.2
v -0.2 0 -0.2
v -0.0999999 0 -0.2
v -0.8 0 -0.3
v -0.7 0 -0.3
v -0.6 0 -0.3
v -0.5 0 -0.3
v -0.2 0 -0.3
v 0.1 0 -0.3
v 0.2 0 -0.3
v -0.7 0 -0.4
v -0.6 0 -0.4
v -0.5 0 -0.4
v -0.4 0 -0.4
v -0.2 0 -0.4
v -0.0999999 0 -0.4
v 0.1 0 -0.4
v -0.6 0 -0.5
v -0.5 0 -0.5
v -0.4 0 -0.5
v -0.2 0 -0.5
v -0.0999999 0 -0.5
v 1.19209e-07 0 -0.5
v -0.7 0 -0.6
v -0.6 0 -0.6
v -0.5 0 -0.6
v -0.0999999 0 -0.6
v 1.19209e-07 0 -0.6
v 0.1 0 -0.6
v -0.8 0 -0.7
v -0.7 0 -0.7
v -0.4 0 -0.7
v -0.3 0 -0.7
v -0.0999999 0 -0.7
v 1.19209e-07 0 -0.7
v -0.8 0 -0.8
v -0.7 0 -0.8
v -0.6 0 -0.8
v -0.5 0 -0.8
v -0.4 0 -0.8
v -0.3 0 -0.8
v -0.0999999 0 -0.8
v 1.19209e-07 0 -0.8
v 0.1 0 -0.8
v -0.7 0 -0.9
v -0.6 0 -0.9
v -0.5 0 -0.9
v -0.4 0 -0.9
v 1.19209e-07 0 -0.9
v 0.1 0 -0.9
v 0.3 0 -0.9
v -0.4 0 -1
v 0.1 0 -1
v -0.6 0 -1.1
v -0.5 0 -1.1
v 0.2 0 -1.1
v 0.3 0 -1.1
v -0.8 0 -1.2
v -0.7 0 -1.2
v -0.5 0 -1.2
v 1.19209e-07 0 -1.2
v 0.2 0 -1.2
v -0.7 0 -1.3
v -0.6 0 -1.3
v -0.0999999 0 -1.3
v 1.19209e-07 0 -1.3
v -0.6 0 -1.4
v -0.0999999 0 -1.4
v -0.8 0.1 1.4
v -0.4 0.1 1.4
v -0.2 0.1 1.4
v 0.2 0.1 1.4
v -0.5 0.1 1.3
v -0.4 0.1 1.3
v -0.2 0.1 1.3
v -0.0999999 0.1 1.3
v -0.8 0.1 1.2
v -0.7 0.1 1.2
v -0.5 0.1 1.2
v -0.0999999 0.1 1.2
v 0.1 0.1 1.2
v 0.2 0.1 1.2
v -0.4 0.1 0.8
v -0.2 0.1 0.8
v -0.9 0.1 0.6
v -0.8 0.1 0.6
v -0.7 0.1 0.6
v -0.5 0.1 0.6
v -0.2 0.1 0.6
v 0.1 0.1 0.6
v 0.2 0.1 0.6
v 0.3 0.1 0.6
v -0.8 0.1 0.5
v -0.7 0.1 0.5
v 0.1 0.1 0.5
v 0.2 0.1 0.5
v -1 0.1 0.4
v -0.9 0.1 0.4
v -0.7 0.1 0.4
v -0.5 0.1 0.4
v -0.4 0.1 0.4
v 0.1 0.1 0.4
v 0.3 0.1 0.4
v 0.4 0.1 0.4
v 0.3 0.1 0.1
v 0.4 0.1 0.1
v -1 0.1 0
v -0.9 0.1 0
v -0.5 0.1 -0.1
v -0.4 0.1 -0.1
v 0.2 0.1 -0.1
v 0.3 0.1 -0.1
v -0.9 0.1 -0.2
v -0.8 0.1 -0.2
v -0.2 0.1 -0.2
v -0.0999999 0.1 -0.2
v -0.8 0.1 -0.3
v -0.7 0.1 -0.3
v -0.6 0.1 -0.3
v -0.5 0.1 -0.3
v -0.2 0.1 -0.3
v 0.1 0.1 -0.3
v 0.2 0.1 -0.3
v -0.7 0.1 -0.4
v -0.6 0.1 -0.4
v -0.5 0.1 -0.4
v -0.4 0.1 -0.4
v -0.2 0.1 -0.4
v -0.0999999 0.1 -0.4
v 0.1 0.1 -0.4
v -0.6 0.1 -0.5
v -0.5 0.1 -0.5
v -0.4 0.1 -0.5
v -0.2 0.1 -0.5
v -0.0999999 0.1 -0.5
v 1.19209e-07 0.1 -0.5
v -0.7 0.1 -0.6
v -0.6 0.1 -0.6
v -0.5 0.1 -0.6
v -0.0999999 0.1 -0.6
v 1.19209e-07 0.1 -0.6
v 0.1 0.1 -0.6
v -0.8 0.1 -0.7
v -0.7 0.1 -0.7
v -0.4 0.1 -0.7
v -0.3 0.1 -0.7
v -0.0999999 0.1 -0.7
v 1.19209e-07 0.1 -0.7
v -0.8 0.1 -0.8
v -0.7 0.1 -0.8
v -0.6 0.1 -0.8
v -0.5 0.1 -0.8
v -0.4 0.1 -0.8
v -0.3 0.1 -0.8
v -0.0999999 0.1 -0.8
v 1.19209e-07 0.1 -0.8
v 0.1 0.1 -0.8
v -0.7 0.1 -0.9
v -0.6 0.1 -0.9
v -0.5 0.1 -0.9
v -0.4 0.1 -0.9
v 1.19209e-07 0.1 -0.9
v 0.1 0.1 -0.9
v 0.3 0.1 -0.9
v -0.4 0.1 -1
v 0.1 0.1 -1
v -0.6 0.1 -1.1
v -0.5 0.1 -1.1
v 0.2 0.1 -1.1
v 0.3 0.1 -1.1
v -0.8 0.1 -1.2
v -0.7 0.1 -1.2
v -0.5 0.1 -1.2
v 1.19209e-07 0.1 -1.2
v 0.2 0.1 -1.2
v -0.7 0.1 -1.3
v -0.6 0.1 -1.3
v -0.0999999 0.1 -1.3
v 1.19209e-07 0.1 -1.3
v -0.6 0.1 -1.4
v -0.0999999 0.1 -1.4

# faces
f 3/5/1 2/5/1 1/5/1
f 4/5/1 2/5/1 3/5/1
f 9/3/1 6/3/1 5/3/1
f 10/3/1 6/3/1 9/3/1
f 11/5/1 8/5/1 7/5/1
f 12/5/1 8/5/1 11/5/1
f 20/1/1 14/1/1 13/1/1
f 21/1/1 14/1/1 20/1/1
f 22/5/1 16/5/1 15/5/1
f 23/5/1 16/5/1 22/5/1
f 24/2/1 18/2/1 17/2/1
f 25/6/1 19/6/1 18/6/1
f 25/2/1 18/2/1 24/2/1
f 26/6/1 19/6/1 25/6/1
f 35/2/1 28/2/1 27/2/1
f 36/2/1 28/2/1 35/2/1
f 37/5/1 30/5/1 29/5/1
f 38/5/1 30/5/1 37/5/1
f 39/2/1 32/2/1 31/2/1
f 40/2/1 32/2/1 39/2/1
f 41/6/1 34/6/1 33/6/1
f 42/6/1 34/6/1 41/6/1
f 47/4/1 44/4/1 43/4/1
f 48/4/1 44/4/1 47/4/1
f 49/6/1 46/6/1 45/6/1
f 50/6/1 46/6/1 49/6/1
f 53/4/1 52/4/1 51/4/1
f 54/4/1 52/4/1 53/4/1
f 58/1/1 56/1/1 55/1/1
f 59/2/1 57/2/1 56/2/1
f 59/1/1 56/1/1 58/1/1
f 60/2/1 57/2/1 59/2/1
f 61/1/2 62/1/2 64/1/2
f 62/2/2 63/2/2 65/2/2
f 64/1/2 62/1/2 65/1/2
f 65/2/2 63/2/2 66/2/2
f 67/4/2 68/4/2 71/4/2
f 71/4/2 68/4/2 72/4/2
f 69/6/2 70/6/2 73/6/2
f 73/6/2 70/6/2 74/6/2
f 75/4/2 76/4/2 79/4/2
f 79/4/2 76/4/2 80/4/2
f 77/6/2 78/6/2 81/6/2
f 81/6/2 78/6/2 82/6/2
f 83/2/2 84/2/2 90/2/2
f 90/2/2 84/2/2 91/2/2
f 85/5/2 86/5/2 92/5/2
f 92/5/2 86/5/2 93/5/2
f 87/4/2 88/4/2 94/4/2
f 88/2/2 89/2/2 95/2/2
f 94/4/2 88/4/2 95/4/2
f 95/2/2 89/2/2 96/2/2
f 97/1/2 98/1/2 103/1/2
f 103/1/2 98/1/2 104/1/2
f 99/5/2 100/5/2 105/5/2
f 105/5/2 100/5/2 106/5/2
f 101/7/2 102/7/2 107/7/2
f 107/7/2 102/7/2 108/7/2
f 109/3/2 110/3/2 115/3/2
f 115/3/2 110/3/2 116/3/2
f 111/5/2 112/5/2 117/5/2
f 117/5/2 112/5/2 118/5/2
f 113/7/2 114/7/2 119/7/2
f 119/7/2 114/7/2 120/7/2
f 121/5/2 122/5/2 123/5/2
f 123/5/2 122/5/2 124/5/2
f 127/1/3 126/1/3 125/1/3
f 128/1/3 126/1/3 127/1/3
f 131/1/3 130/1/3 129/1/3
f 132/1/3 130/1/3 131/1/3
f 135/2/3 134/2/3 133/2/3
f 136/2/3 134/2/3 135/2/3
f 139/3/3 138/3/3 137/3/3
f 140/3/3 138/3/3 139/3/3
f 141/4/3 140/4/3 139/4/3
f 142/4/3 140/4/3 141/4/3
f 145/4/3 144/4/3 143/4/3
f 146/4/3 144/4/3 145/4/3
f 147/3/3 146/3/3 145/3/3
f 148/3/3 146/3/3 147/3/3
f 151/5/3 150/5/3 149/5/3
f 152/5/3 150/5/3 151/5/3
f 155/5/3 154/5/3 153/5/3
f 156/5/3 154/5/3 155/5/3
f 159/4/3 158/4/3 157/4/3
f 160/4/3 158/4/3 159/4/3
f 163/4/3 162/4/3 161/4/3
f 164/4/3 162/4/3 163/4/3
f 167/2/3 166/2/3 165/2/3
f 168/2/3 166/2/3 167/2/3
f 171/4/3 170/4/3 169/4/3
f 172/4/3 170/4/3 171/4/3
f 175/2/3 174/2/3 173/2/3
f 176/2/3 174/2/3 175/2/3
f 179/7/3 178/7/3 177/7/3
f 180/7/3 178/7/3 179/7/3
f 181/1/4 182/1/4 183/1/4
f 183/1/4 182/1/4 184/1/4
f 185/1/4 186/1/4 187/1/4
f 187/1/4 186/1/4 188/1/4
f 189/5/4 190/5/4 191/5/4
f 191/5/4 190/5/4 192/5/4
f 193/5/4 194/5/4 195/5/4
f 195/5/4 194/5/4 196/5/4
f 197/5/4 198/5/4 199/5/4
f 199/5/4 198/5/4 200/5/4
f 201/5/4 202/5/4 203/5/4
f 203/5/4 202/5/4 204/5/4
f 205/5/4 206/5/4 207/5/4
f 207/5/4 206/5/4 208/5/4
f 209/5/4 210/5/4 211/5/4
f 211/5/4 210/5/4 212/5/4
f 213/5/4 214/5/4 215/5/4
f 215/5/4 214/5/4 216/5/4
f 215/1/4 216/1/4 217/1/4
f 217/1/4 216/1/4 218/1/4
f 219/5/4 220/5/4 221/5/4
f 221/5/4 220/5/4 222/5/4
f 223/7/4 224/7/4 225/7/4
f 225/7/4 224/7/4 226/7/4
f 227/6/4 228/6/4 229/6/4
f 229/6/4 228/6/4 230/6/4
f 231/7/4 232/7/4 233/7/4
f 233/7/4 232/7/4 234/7/4
f 235/6/4 236/6/4 237/6/4
f 237/6/4 236/6/4 238/6/4
f 239/6/4 240/6/4 241/6/4
f 241/6/4 240/6/4 242/6/4
f 243/6/4 244/6/4 245/6/4
f 245/6/4 244/6/4 246/6/4
f 251/1/5 248/1/5 247/1/5
f 252/1/5 248/1/5 251/1/5
f 253/1/5 250/1/5 249/1/5
f 254/1/5 250/1/5 253/1/5
f 255/1/5 251/1/5 247/1/5
f 256/1/5 251/1/5 255/1/5
f 257/2/5 252/2/5 251/2/5
f 257/1/5 251/1/5 256/1/5
f 258/1/5 250/1/5 254/1/5
f 258/2/5 254/2/5 253/2/5
f 259/1/5 250/1/5 258/1/5
f 260/1/5 250/1/5 259/1/5
f 261/2/5 252/2/5 257/2/5
f 261/2/5 257/2/5 256/2/5
f 262/2/5 259/2/5 258/2/5
f 262/2/5 258/2/5 253/2/5
f 265/2/5 261/2/5 256/2/5
f 265/2/5 262/2/5 261/2/5
f 266/2/5 262/2/5 265/2/5
f 267/2/5 259/2/5 262/2/5
f 267/2/5 262/2/5 266/2/5
f 268/2/5 259/2/5 267/2/5
f 271/3/5 264/3/5 263/3/5
f 271/4/5 265/4/5 264/4/5
f 272/5/5 266/5/5 265/5/5
f 272/4/5 265/4/5 271/4/5
f 273/4/5 269/4/5 268/4/5
f 273/5/5 268/5/5 267/5/5
f 274/3/5 270/3/5 269/3/5
f 274/4/5 269/4/5 273/4/5
f 276/3/5 271/3/5 263/3/5
f 276/3/5 272/3/5 271/3/5
f 277/5/5 266/5/5 272/5/5
f 277/3/5 272/3/5 276/3/5
f 278/1/5 267/1/5 266/1/5
f 278/5/5 266/5/5 277/5/5
f 279/1/5 267/1/5 278/1/5
f 280/5/5 273/5/5 267/5/5
f 280/3/5 274/3/5 273/3/5
f 281/3/5 270/3/5 274/3/5
f 281/3/5 274/3/5 280/3/5
f 283/5/5 281/5/5 280/5/5
f 283/5/5 282/5/5 281/5/5
f 284/5/5 282/5/5 283/5/5
f 285/5/5 276/5/5 275/5/5
f 285/5/5 279/5/5 278/5/5
f 285/5/5 277/5/5 276/5/5
f 285/5/5 278/5/5 277/5/5
f 286/5/5 279/5/5 285/5/5
f 287/5/5 279/5/5 286/5/5
f 288/1/5 267/1/5 279/1/5
f 288/5/5 279/5/5 287/5/5
f 289/5/5 283/5/5 280/5/5
f 290/5/5 283/5/5 289/5/5
f 291/5/5 287/5/5 286/5/5
f 292/5/5 287/5/5 291/5/5
f 293/5/5 280/5/5 267/5/5
f 293/1/5 267/1/5 288/1/5
f 293/1/5 288/1/5 287/1/5
f 293/5/5 289/5/5 280/5/5
f 294/5/5 289/5/5 293/5/5
f 295/5/5 287/5/5 292/5/5
f 296/5/5 287/5/5 295/5/5
f 297/5/5 287/5/5 296/5/5
f 298/1/5 294/1/5 293/1/5
f 298/5/5 287/5/5 297/5/5
f 298/1/5 293/1/5 287/1/5
f 299/1/5 294/1/5 298/1/5
f 300/5/5 289/5/5 294/5/5
f 301/5/5 289/5/5 300/5/5
f 302/5/5 297/5/5 296/5/5
f 303/1/5 298/1/5 297/1/5
f 303/5/5 297/5/5 302/5/5
f 304/4/5 299/4/5 298/4/5
f 304/1/5 298/1/5 303/1/5
f 305/4/5 299/4/5 304/4/5
f 306/1/5 294/1/5 299/1/5
f 306/4/5 299/4/5 305/4/5
f 307/5/5 300/5/5 294/5/5
f 307/1/5 294/1/5 306/1/5
f 308/5/5 300/5/5 307/5/5
f 310/4/5 305/4/5 304/4/5
f 311/3/5 306/3/5 305/3/5
f 311/4/5 305/4/5 310/4/5
f 312/4/5 307/4/5 306/4/5
f 312/3/5 306/3/5 311/3/5
f 313/4/5 307/4/5 312/4/5
f 316/4/5 310/4/5 309/4/5
f 317/3/5 311/3/5 310/3/5
f 317/3/5 312/3/5 311/3/5
f 317/4/5 310/4/5 316/4/5
f 317/3/5 313/3/5 312/3/5
f 318/4/5 314/4/5 313/4/5
f 318/3/5 313/3/5 317/3/5
f 319/4/5 314/4/5 318/4/5
f 322/2/5 316/2/5 315/2/5
f 323/3/5 317/3/5 316/3/5
f 323/3/5 318/3/5 317/3/5
f 323/3/5 319/3/5 318/3/5
f 324/3/5 319/3/5 323/3/5
f 325/3/5 319/3/5 324/3/5
f 326/4/5 320/4/5 319/4/5
f 326/3/5 319/3/5 325/3/5
f 327/2/5 322/2/5 321/2/5
f 328/2/5 316/2/5 322/2/5
f 328/2/5 322/2/5 327/2/5
f 329/3/5 323/3/5 316/3/5
f 329/2/5 316/2/5 328/2/5
f 330/3/5 323/3/5 329/3/5
f 331/2/5 324/2/5 323/2/5
f 331/3/5 323/3/5 330/3/5
f 332/3/5 325/3/5 324/3/5
f 332/2/5 324/2/5 331/2/5
f 333/2/5 326/2/5 325/2/5
f 333/3/5 325/3/5 332/3/5
f 334/4/5 320/4/5 326/4/5
f 334/2/5 326/2/5 333/2/5
f 335/4/5 320/4/5 334/4/5
f 336/6/5 328/6/5 327/6/5
f 336/7/5 330/7/5 329/7/5
f 336/7/5 329/7/5 328/7/5
f 337/7/5 330/7/5 336/7/5
f 338/3/5 331/3/5 330/3/5
f 338/7/5 330/7/5 337/7/5
f 338/3/5 333/3/5 332/3/5
f 338/3/5 332/3/5 331/3/5
f 338/3/5 334/3/5 333/3/5
f 339/3/5 334/3/5 338/3/5
f 340/2/5 335/2/5 334/2/5
f 340/3/5 334/3/5 339/3/5
f 341/2/5 335/2/5 340/2/5
f 343/2/5 341/2/5 340/2/5
f 343/2/5 340/2/5 339/2/5
f 343/7/5 339/7/5 338/7/5
f 343/7/5 338/7/5 337/7/5
f 344/7/5 342/7/5 341/7/5
f 344/2/5 341/2/5 343/2/5
f 345/6/5 337/6/5 336/6/5
f 345/7/5 343/7/5 337/7/5
f 345/7/5 344/7/5 343/7/5
f 346/7/5 344/7/5 345/7/5
f 347/7/5 342/7/5 344/7/5
f 347/7/5 344/7/5 346/7/5
f 348/7/5 342/7/5 347/7/5
f 349/6/5 346/6/5 345/6/5
f 349/6/5 336/6/5 327/6/5
f 349/6/5 345/6/5 336/6/5
f 350/6/5 346/6/5 349/6/5
f 351/7/5 347/7/5 346/7/5
f 351/6/5 346/6/5 350/6/5
f 352/7/5 347/7/5 351/7/5
f 353/7/5 347/7/5 352/7/5
f 354/6/5 351/6/5 350/6/5
f 354/6/5 352/6/5 351/6/5
f 355/6/5 352/6/5 354/6/5
f 356/6/5 352/6/5 355/6/5
f 357/6/5 352/6/5 356/6/5
f 358/6/5 356/6/5 355/6/5
f 359/6/5 356/6/5 358/6/5
f 360/1/6 361/1/6 364/1/6
f 364/1/6 361/1/6 365/1/6
f 362/1/6 363/1/6 366/1/6
f 366/1/6 363/1/6 367/1/6
f 360/1/6 364/1/6 368/1/6
f 368/1/6 364/1/6 369/1/6
f 364/2/6 365/2/6 370/2/6
f 369/1/6 364/1/6 370/1/6
f 367/1/6 363/1/6 371/1/6
f 366/2/6 367/2/6 371/2/6
f 371/1/6 363/1/6 372/1/6
f 372/1/6 363/1/6 373/1/6
f 370/2/6 365/2/6 374/2/6
f 369/2/6 370/2/6 374/2/6
f 371/2/6 372/2/6 375/2/6
f 366/2/6 371/2/6 375/2/6
f 369/2/6 374/2/6 378/2/6
f 374/2/6 375/2/6 378/2/6
f 378/2/6 375/2/6 379/2/6
f 375/2/6 372/2/6 380/2/6
f 379/2/6 375/2/6 380/2/6
f 380/2/6 372/2/6 381/2/6
f 376/3/6 377/3/6 384/3/6
f 377/4/6 378/4/6 384/4/6
f 378/5/6 379/5/6 385/5/6
f 384/4/6 378/4/6 385/4/6
f 381/4/6 382/4/6 386/4/6
f 380/5/6 381/5/6 386/5/6
f 382/3/6 383/3/6 387/3/6
f 386/4/6 382/4/6 387/4/6
f 376/3/6 384/3/6 389/3/6
f 384/3/6 385/3/6 389/3/6
f 385/5/6 379/5/6 390/5/6
f 389/3/6 385/3/6 390/3/6
f 379/1/6 380/1/6 391/1/6
f 390/5/6 379/5/6 391/5/6
f 391/1/6 380/1/6 392/1/6
f 380/5/6 386/5/6 393/5/6
f 386/3/6 387/3/6 393/3/6
f 387/3/6 383/3/6 394/3/6
f 393/3/6 387/3/6 394/3/6
f 393/5/6 394/5/6 396/5/6
f 394/5/6 395/5/6 396/5/6
f 396/5/6 395/5/6 397/5/6
f 388/5/6 389/5/6 398/5/6
f 391/5/6 392/5/6 398/5/6
f 389/5/6 390/5/6 398/5/6
f 390/5/6 391/5/6 398/5/6
f 398/5/6 392/5/6 399/5/6
f 399/5/6 392/5/6 400/5/6
f 392/1/6 380/1/6 401/1/6
f 400/5/6 392/5/6 401/5/6
f 393/5/6 396/5/6 402/5/6
f 402/5/6 396/5/6 403/5/6
f 399/5/6 400/5/6 404/5/6
f 404/5/6 400/5/6 405/5/6
f 380/5/6 393/5/6 406/5/6
f 401/1/6 380/1/6 406/1/6
f 400/1/6 401/1/6 406/1/6
f 393/5/6 402/5/6 406/5/6
f 406/5/6 402/5/6 407/5/6
f 405/5/6 400/5/6 408/5/6
f 408/5/6 400/5/6 409/5/6
f 409/5/6 400/5/6 410/5/6
f 406/1/6 407/1/6 411/1/6
f 410/5/6 400/5/6 411/5/6
f 400/1/6 406/1/6 411/1/6
f 411/1/6 407/1/6 412/1/6
f 407/5/6 402/5/6 413/5/6
f 413/5/6 402/5/6 414/5/6
f 409/5/6 410/5/6 415/5/6
f 410/1/6 411/1/6 416/1/6
f 415/5/6 410/5/6 416/5/6
f 411/4/6 412/4/6 417/4/6
f 416/1/6 411/1/6 417/1/6
f 417/4/6 412/4/6 418/4/6
f 412/1/6 407/1/6 419/1/6
f 418/4/6 412/4/6 419/4/6
f 407/5/6 413/5/6 420/5/6
f 419/1/6 407/1/6 420/1/6
f 420/5/6 413/5/6 421/5/6
f 417/4/6 418/4/6 423/4/6
f 418/3/6 419/3/6 424/3/6
f 423/4/6 418/4/6 424/4/6
f 419/4/6 420/4/6 425/4/6
f 424/3/6 419/3/6 425/3/6
f 425/4/6 420/4/6 426/4/6
f 422/4/6 423/4/6 429/4/6
f 423/3/6 424/3/6 430/3/6
f 424/3/6 425/3/6 430/3/6
f 429/4/6 423/4/6 430/4/6
f 425/3/6 426/3/6 430/3/6
f 426/4/6 427/4/6 431/4/6
f 430/3/6 426/3/6 431/3/6
f 431/4/6 427/4/6 432/4/6
f 428/2/6 429/2/6 435/2/6
f 429/3/6 430/3/6 436/3/6
f 430/3/6 431/3/6 436/3/6
f 431/3/6 432/3/6 436/3/6
f 436/3/6 432/3/6 437/3/6
f 437/3/6 432/3/6 438/3/6
f 432/4/6 433/4/6 439/4/6
f 438/3/6 432/3/6 439/3/6
f 434/2/6 435/2/6 440/2/6
f 435/2/6 429/2/6 441/2/6
f 440/2/6 435/2/6 441/2/6
f 429/3/6 436/3/6 442/3/6
f 441/2/6 429/2/6 442/2/6
f 442/3/6 436/3/6 443/3/6
f 436/2/6 437/2/6 444/2/6
f 443/3/6 436/3/6 444/3/6
f 437/3/6 438/3/6 445/3/6
f 444/2/6 437/2/6 445/2/6
f 438/2/6 439/2/6 446/2/6
f 445/3/6 438/3/6 446/3/6
f 439/4/6 433/4/6 447/4/6
f 446/2/6 439/2/6 447/2/6
f 447/4/6 433/4/6 448/4/6
f 440/6/6 441/6/6 449/6/6
f 442/7/6 443/7/6 449/7/6
f 441/7/6 442/7/6 449/7/6
f 449/7/6 443/7/6 450/7/6
f 443/3/6 444/3/6 451/3/6
f 450/7/6 443/7/6 451/7/6
f 445/3/6 446/3/6 451/3/6
f 444/3/6 445/3/6 451/3/6
f 446/3/6 447/3/6 451/3/6
f 451/3/6 447/3/6 452/3/6
f 447/2/6 448/2/6 453/2/6
f 452/3/6 447/3/6 453/3/6
f 453/2/6 448/2/6 454/2/6
f 453/2/6 454/2/6 456/2/6
f 452/2/6 453/2/6 456/2/6
f 451/7/6 452/7/6 456/7/6
f 450/7/6 451/7/6 456/7/6
f 454/7/6 455/7/6 457/7/6
f 456/2/6 454/2/6 457/2/6
f 449/6/6 450/6/6 458/6/6
f 450/7/6 456/7/6 458/7/6
f 456/7/6 457/7/6 458/7/6
f 458/7/6 457/7/6 459/7/6
f 457/7/6 455/7/6 460/7/6
f 459/7/6 457/7/6 460/7/6
f 460/7/6 455/7/6 461/7/6
f 458/6/6 459/6/6 462/6/6
f 440/6/6 449/6/6 462/6/6
f 449/6/6 458/6/6 462/6/6
f 462/6/6 459/6/6 463/6/6
f 459/7/6 460/7/6 464/7/6
f 463/6/6 459/6/6 464/6/6
f 464/7/6 460/7/6 465/7/6
f 465/7/6 460/7/6 466/7/6
f 463/6/6 464/6/6 467/6/6
f 464/6/6 465/6/6 467/6/6
f 467/6/6 465/6/6 468/6/6
f 468/6/6 465/6/6 469/6/6
f 469/6/6 465/6/6 470/6/6
f 468/6/6 469/6/6 471/6/6
f 471/6/6 469/6/6 472/6/6
